<mxfile host="app.diagrams.net" agent="Mozilla/5.0 (X11; Linux x86_64; rv:128.0) Gecko/20100101 Firefox/128.0" version="25.0.3">
  <diagram name="PÃ¡gina-1" id="LLrPHrz99JNfq2OTLc29">
    <mxGraphModel dx="1434" dy="728" grid="1" gridSize="10" guides="1" tooltips="1" connect="1" arrows="1" fold="1" page="1" pageScale="1" pageWidth="1169" pageHeight="827" math="0" shadow="0">
      <root>
        <mxCell id="0" />
        <mxCell id="1" parent="0" />
        <mxCell id="Y7Bw5syOpe2_yFHolYuS-7" value="&lt;h1&gt;perro.py&lt;/h1&gt;" style="swimlane;whiteSpace=wrap;html=1;fillColor=#fff2cc;strokeColor=#d6b656;swimlaneFillColor=default;shadow=0;startSize=40;" vertex="1" parent="1">
          <mxGeometry x="150" y="100" width="200" height="100" as="geometry" />
        </mxCell>
        <mxCell id="Y7Bw5syOpe2_yFHolYuS-8" value="&lt;div align=&quot;left&quot;&gt;&lt;font style=&quot;font-size: 14px;&quot;&gt;def Ladrar()&lt;/font&gt;&lt;/div&gt;" style="rounded=0;whiteSpace=wrap;html=1;align=left;strokeColor=none;" vertex="1" parent="Y7Bw5syOpe2_yFHolYuS-7">
          <mxGeometry x="10" y="50" width="180" height="30" as="geometry" />
        </mxCell>
        <mxCell id="Y7Bw5syOpe2_yFHolYuS-9" value="&lt;h1&gt;gato.py&lt;/h1&gt;" style="swimlane;whiteSpace=wrap;html=1;fillColor=#fff2cc;strokeColor=#d6b656;swimlaneFillColor=default;shadow=0;startSize=40;" vertex="1" parent="1">
          <mxGeometry x="150" y="210" width="200" height="100" as="geometry" />
        </mxCell>
        <mxCell id="Y7Bw5syOpe2_yFHolYuS-10" value="&lt;div align=&quot;left&quot;&gt;&lt;font style=&quot;font-size: 14px;&quot;&gt;def Maullar()&lt;/font&gt;&lt;/div&gt;" style="rounded=0;whiteSpace=wrap;html=1;align=left;strokeColor=none;" vertex="1" parent="Y7Bw5syOpe2_yFHolYuS-9">
          <mxGeometry x="10" y="50" width="180" height="30" as="geometry" />
        </mxCell>
        <mxCell id="Y7Bw5syOpe2_yFHolYuS-11" value="&lt;h1&gt;aves.py&lt;/h1&gt;" style="swimlane;whiteSpace=wrap;html=1;fillColor=#fff2cc;strokeColor=#d6b656;swimlaneFillColor=default;shadow=0;startSize=40;" vertex="1" parent="1">
          <mxGeometry x="150" y="330" width="200" height="100" as="geometry" />
        </mxCell>
        <mxCell id="Y7Bw5syOpe2_yFHolYuS-12" value="&lt;div align=&quot;left&quot;&gt;&lt;font style=&quot;font-size: 14px;&quot;&gt;def Volar()&lt;/font&gt;&lt;/div&gt;" style="rounded=0;whiteSpace=wrap;html=1;align=left;strokeColor=none;" vertex="1" parent="Y7Bw5syOpe2_yFHolYuS-11">
          <mxGeometry x="10" y="50" width="180" height="30" as="geometry" />
        </mxCell>
        <mxCell id="Y7Bw5syOpe2_yFHolYuS-13" value="&lt;h1&gt;arboles.py&lt;/h1&gt;" style="swimlane;whiteSpace=wrap;html=1;fillColor=#fff2cc;strokeColor=#d6b656;swimlaneFillColor=default;shadow=0;startSize=40;" vertex="1" parent="1">
          <mxGeometry x="370" y="100" width="200" height="100" as="geometry" />
        </mxCell>
        <mxCell id="Y7Bw5syOpe2_yFHolYuS-14" value="&lt;div align=&quot;left&quot;&gt;&lt;font style=&quot;font-size: 14px;&quot;&gt;def Crecer()&lt;/font&gt;&lt;/div&gt;" style="rounded=0;whiteSpace=wrap;html=1;align=left;strokeColor=none;" vertex="1" parent="Y7Bw5syOpe2_yFHolYuS-13">
          <mxGeometry x="10" y="50" width="180" height="30" as="geometry" />
        </mxCell>
        <mxCell id="Y7Bw5syOpe2_yFHolYuS-15" value="&lt;h1&gt;flores.py&lt;/h1&gt;" style="swimlane;whiteSpace=wrap;html=1;fillColor=#fff2cc;strokeColor=#d6b656;swimlaneFillColor=default;shadow=0;startSize=40;" vertex="1" parent="1">
          <mxGeometry x="370" y="210" width="200" height="100" as="geometry" />
        </mxCell>
        <mxCell id="Y7Bw5syOpe2_yFHolYuS-16" value="&lt;div align=&quot;left&quot;&gt;&lt;font style=&quot;font-size: 14px;&quot;&gt;def Florecer()&lt;/font&gt;&lt;/div&gt;" style="rounded=0;whiteSpace=wrap;html=1;align=left;strokeColor=none;" vertex="1" parent="Y7Bw5syOpe2_yFHolYuS-15">
          <mxGeometry x="10" y="50" width="180" height="30" as="geometry" />
        </mxCell>
        <mxCell id="Y7Bw5syOpe2_yFHolYuS-17" value="&lt;h1&gt;clima.py&lt;/h1&gt;" style="swimlane;whiteSpace=wrap;html=1;fillColor=#fff2cc;strokeColor=#d6b656;swimlaneFillColor=default;shadow=0;startSize=40;" vertex="1" parent="1">
          <mxGeometry x="370" y="330" width="200" height="100" as="geometry" />
        </mxCell>
        <mxCell id="Y7Bw5syOpe2_yFHolYuS-18" value="&lt;div align=&quot;left&quot;&gt;&lt;font style=&quot;font-size: 14px;&quot;&gt;def Predecir()&lt;/font&gt;&lt;/div&gt;" style="rounded=0;whiteSpace=wrap;html=1;align=left;strokeColor=none;" vertex="1" parent="Y7Bw5syOpe2_yFHolYuS-17">
          <mxGeometry x="10" y="50" width="180" height="30" as="geometry" />
        </mxCell>
      </root>
    </mxGraphModel>
  </diagram>
</mxfile>
